<svg width="17" height="17" viewBox="0 0 17 17" fill="none" xmlns="http://www.w3.org/2000/svg">
<path d="M15.2951 5.5259C14.8235 5.65392 14.5449 6.13993 14.6729 6.61151C14.8244 7.17009 14.9013 7.75024 14.9013 8.33539C14.9013 10.0892 14.2182 11.738 12.9782 12.9782C11.738 14.2184 10.0892 14.9013 8.33539 14.9013C6.58155 14.9013 4.93273 14.2182 3.69255 12.9782C2.45237 11.738 1.76952 10.0892 1.76952 8.33539C1.76952 6.58155 2.45255 4.93273 3.69255 3.69255C4.93273 2.45237 6.58155 1.76952 8.33539 1.76952C9.21293 1.76952 10.0644 1.93943 10.8664 2.2748C11.3171 2.46325 11.8354 2.25073 12.024 1.79983C12.2125 1.34894 12 0.830829 11.5491 0.642199C10.5298 0.216087 9.44863 0 8.33539 0C7.22215 0 6.11872 0.220544 5.09052 0.655392C4.0978 1.07526 3.20654 1.6761 2.44132 2.44132C1.6761 3.20654 1.07526 4.0978 0.655392 5.09052C0.220544 6.11889 0 7.21056 0 8.33539C0 9.46022 0.220544 10.5521 0.655392 11.5803C1.07526 12.573 1.6761 13.4642 2.44132 14.2295C3.20654 14.9947 4.0978 15.5955 5.09052 16.0154C6.11872 16.4502 7.21038 16.6708 8.33539 16.6708C9.46039 16.6708 10.5521 16.4502 11.5803 16.0154C12.573 15.5955 13.4642 14.9947 14.2295 14.2295C14.9947 13.4642 15.5955 12.573 16.0154 11.5803C16.4502 10.5521 16.6708 9.46039 16.6708 8.33539C16.6708 7.5937 16.5733 6.85773 16.3807 6.14813C16.2529 5.67656 15.767 5.39807 15.2951 5.5259Z" fill="#196AFF"/>
<path d="M5.57265 7.30853C5.22713 6.963 4.66694 6.963 4.32141 7.30853C3.97589 7.65405 3.97589 8.21424 4.32141 8.55976L7.27656 11.5149C7.44291 11.6813 7.66809 11.774 7.90218 11.774C7.91858 11.774 7.93481 11.7734 7.95121 11.7725C8.2026 11.7586 8.43598 11.6383 8.59323 11.4416L14.9097 3.54163C15.2147 3.15991 15.1529 2.60329 14.7711 2.29806C14.3894 1.99283 13.8328 2.05487 13.5276 2.43659L7.82872 9.56442L5.57265 7.30835V7.30853Z" fill="#196AFF"/>
</svg>
