<svg width="1440" height="130" viewBox="0 0 1440 130" fill="none" xmlns="http://www.w3.org/2000/svg">
<mask id="mask0_1_6584" style="mask-type:alpha" maskUnits="userSpaceOnUse" x="0" y="0" width="1440" height="130">
<rect width="1440" height="130" fill="#D9D9D9"/>
</mask>
<g mask="url(#mask0_1_6584)">
<g opacity="0.7">
<path d="M1442.35 7.93518L1442.35 5.9924L1532.5 5.99241L1532.5 7.93519L1442.35 7.93518ZM1407.27 43.0209C1407.27 62.3981 1422.98 78.1074 1442.35 78.1075L1468.56 78.1075C1470.39 78.1075 1472.15 78.8285 1473.46 80.1157L1484.92 91.3749C1486.23 92.6697 1488.34 92.6697 1489.66 91.3749L1501.11 80.1214C1502.42 78.8304 1504.19 78.1075 1506.03 78.1075L1532.5 78.1075C1551.88 78.1074 1567.59 62.3982 1567.59 43.0209C1567.59 23.6437 1551.88 7.93524 1532.5 7.93519L1532.5 5.99241L1533.46 6.00474C1553.15 6.50343 1569.02 22.3744 1569.52 42.0656L1569.53 43.0209C1569.53 63.4712 1552.95 80.0502 1532.5 80.0503L1506.03 80.0503C1504.78 80.0503 1503.58 80.5095 1502.65 81.3366L1502.47 81.5074L1491.02 92.7608C1488.95 94.7988 1485.63 94.7988 1483.55 92.7608L1472.1 81.5007C1471.16 80.5709 1469.88 80.0503 1468.56 80.0503L1442.35 80.0503C1421.9 80.0501 1405.32 63.4711 1405.32 43.0209L1405.34 42.0656C1405.83 22.3745 1421.71 6.50347 1441.4 6.00473L1442.35 5.9924L1442.35 7.93518C1422.98 7.93528 1407.27 23.6437 1407.27 43.0209Z" fill="#001E59"/>
<path d="M1171.71 96.5847C1192.19 96.5847 1208.78 113.182 1208.78 133.656C1208.78 154.13 1192.19 170.727 1171.71 170.727C1151.24 170.727 1134.64 154.13 1134.64 133.656C1134.64 113.182 1151.24 96.5847 1171.71 96.5847Z" fill="#001E59"/>
<path d="M1316.89 43.3412C1316.89 62.7421 1332.62 78.4696 1352.02 78.4696C1371.42 78.4695 1387.15 62.742 1387.15 43.3412C1387.15 23.9403 1371.42 8.2129 1352.02 8.21282L1352.02 6.27005C1372.49 6.27013 1389.09 22.8673 1389.09 43.3412C1389.09 63.815 1372.49 80.4123 1352.02 80.4124C1331.55 80.4123 1314.95 63.815 1314.95 43.3412C1314.95 22.8673 1331.55 6.27005 1352.02 6.27005L1352.02 8.21282C1332.62 8.21282 1316.89 23.9402 1316.89 43.3412Z" fill="#001E59"/>
<path d="M1226.76 43.5249L1226.76 69.7277C1226.76 71.5638 1226.04 73.3265 1224.75 74.6358L1213.49 86.0885C1212.19 87.4055 1212.19 89.5175 1213.49 90.8345L1224.74 102.281C1226.03 103.595 1226.76 105.363 1226.76 107.205L1226.76 133.675C1226.76 153.052 1242.47 168.761 1261.84 168.761C1281.22 168.761 1296.93 153.052 1296.93 133.675L1296.93 43.5249C1296.93 24.1476 1281.22 8.43924 1261.84 8.43918L1261.84 6.4964L1262.8 6.50872C1282.49 7.00743 1298.36 22.8784 1298.86 42.5696L1298.87 43.5249L1298.87 133.675C1298.87 154.125 1282.29 170.704 1261.84 170.704C1241.39 170.704 1224.82 154.125 1224.82 133.675L1224.82 107.205C1224.82 105.873 1224.29 104.593 1223.36 103.643L1212.1 92.1967C1210.07 90.1237 1210.07 86.7993 1212.1 84.7263L1223.36 73.2736L1223.53 73.0924C1224.36 72.1682 1224.82 70.9712 1224.82 69.7277L1224.82 43.5249L1224.83 42.5696C1225.33 22.5609 1241.71 6.49639 1261.84 6.4964L1261.84 8.43918C1242.47 8.43917 1226.76 24.1476 1226.76 43.5249Z" fill="#001E59"/>
<path d="M1479.39 134.171C1479.39 154.636 1462.8 171.227 1442.33 171.227L1352.11 171.227C1331.65 171.227 1315.06 154.636 1315.06 134.171C1315.06 113.707 1331.65 97.1164 1352.11 97.1164L1442.33 97.1164C1462.8 97.1164 1479.39 113.707 1479.39 134.171Z" fill="#001E59"/>
<path d="M1136.58 43.5097C1136.58 62.9105 1152.31 78.638 1171.71 78.638C1191.11 78.638 1206.84 62.9105 1206.84 43.5097C1206.84 24.1088 1191.11 8.38136 1171.71 8.38128L1171.71 6.4385C1192.19 6.43859 1208.78 23.0358 1208.78 43.5097C1208.78 63.9835 1192.19 80.5807 1171.71 80.5808C1151.24 80.5808 1134.64 63.9835 1134.64 43.5097C1134.64 23.0357 1151.24 6.4385 1171.71 6.4385L1171.71 8.38128C1152.31 8.38127 1136.58 24.1087 1136.58 43.5097Z" fill="#001E59"/>
<path d="M991.627 7.93518L991.627 5.9924L1081.78 5.99241L1081.78 7.93519L991.627 7.93518ZM956.541 43.0209C956.541 62.3981 972.25 78.1074 991.627 78.1075L1017.83 78.1075C1019.67 78.1075 1021.43 78.8285 1022.74 80.1157L1034.19 91.3749C1035.51 92.6697 1037.62 92.6697 1038.94 91.3749L1050.38 80.1214C1051.7 78.8304 1053.47 78.1075 1055.31 78.1075L1081.78 78.1075C1101.15 78.1074 1116.86 62.3982 1116.86 43.0209C1116.86 23.6437 1101.15 7.93524 1081.78 7.93519L1081.78 5.99241L1082.73 6.00474C1102.42 6.50343 1118.29 22.3744 1118.79 42.0656L1118.81 43.0209C1118.81 63.4712 1102.23 80.0502 1081.78 80.0503L1055.31 80.0503C1054.06 80.0503 1052.86 80.5095 1051.93 81.3366L1051.74 81.5074L1040.3 92.7608C1038.23 94.7988 1034.9 94.7988 1032.83 92.7608L1021.38 81.5007C1020.43 80.5709 1019.16 80.0503 1017.83 80.0503L991.627 80.0503C971.177 80.0501 954.599 63.4711 954.599 43.0209L954.611 42.0656C955.11 22.3745 970.981 6.50347 990.672 6.00473L991.627 5.9924L991.627 7.93518C972.25 7.93528 956.542 23.6437 956.541 43.0209Z" fill="#001E59"/>
<path d="M720.986 96.5847C741.46 96.5847 758.058 113.182 758.057 133.656C758.057 154.13 741.46 170.727 720.986 170.727C700.512 170.727 683.915 154.13 683.915 133.656C683.915 113.182 700.512 96.5847 720.986 96.5847Z" fill="#001E59"/>
<path d="M866.169 43.3412C866.169 62.7421 881.897 78.4696 901.298 78.4696C920.699 78.4695 936.426 62.742 936.426 43.3412C936.426 23.9403 920.699 8.2129 901.298 8.21282L901.298 6.27005C921.772 6.27013 938.369 22.8673 938.369 43.3412C938.369 63.815 921.772 80.4123 901.298 80.4124C880.824 80.4123 864.227 63.815 864.227 43.3412C864.227 22.8673 880.824 6.27005 901.298 6.27005L901.298 8.21282C881.897 8.21282 866.169 23.9402 866.169 43.3412Z" fill="#001E59"/>
<path d="M1046.45 133.82C1046.45 153.221 1062.18 168.949 1081.58 168.949C1100.98 168.948 1116.71 153.221 1116.71 133.82C1116.71 114.419 1100.98 98.6919 1081.58 98.6918L1081.58 96.7491C1102.05 96.7491 1118.65 113.346 1118.65 133.82C1118.65 154.294 1102.05 170.891 1081.58 170.891C1061.1 170.891 1044.51 154.294 1044.51 133.82C1044.51 113.346 1061.1 96.749 1081.58 96.7491L1081.58 98.6918C1062.18 98.6918 1046.45 114.419 1046.45 133.82Z" fill="#001E59"/>
<path d="M776.034 43.5249L776.034 69.7277C776.034 71.5638 775.312 73.3265 774.025 74.6358L762.765 86.0885C761.471 87.4055 761.471 89.5175 762.765 90.8345L774.019 102.281C775.31 103.595 776.034 105.363 776.034 107.205L776.034 133.675C776.034 153.052 791.742 168.761 811.119 168.761C830.497 168.761 846.205 153.052 846.205 133.675L846.205 43.5249C846.205 24.1476 830.497 8.43924 811.119 8.43918L811.119 6.4964L812.075 6.50872C831.766 7.00743 847.637 22.8784 848.136 42.5696L848.148 43.5249L848.148 133.675C848.148 154.125 831.57 170.704 811.119 170.704C790.669 170.704 774.091 154.125 774.091 133.675L774.091 107.205C774.091 105.873 773.567 104.593 772.633 103.643L761.38 92.1967C759.342 90.1237 759.342 86.7993 761.38 84.7263L772.64 73.2736L772.809 73.0924C773.633 72.1682 774.091 70.9712 774.091 69.7277L774.091 43.5249L774.103 42.5696C774.61 22.5609 790.989 6.49639 811.119 6.4964L811.119 8.43918C791.742 8.43917 776.034 24.1476 776.034 43.5249Z" fill="#001E59"/>
<path d="M1028.66 134.171C1028.66 154.636 1012.07 171.227 991.608 171.227L901.39 171.227C880.925 171.227 864.335 154.636 864.335 134.171C864.335 113.707 880.925 97.1164 901.39 97.1164L991.608 97.1164C1012.07 97.1164 1028.66 113.707 1028.66 134.171Z" fill="#001E59"/>
<path d="M685.858 43.5097C685.858 62.9105 701.585 78.638 720.986 78.638C740.387 78.638 756.115 62.9105 756.115 43.5097C756.115 24.1088 740.387 8.38136 720.986 8.38128L720.986 6.4385C741.46 6.43859 758.058 23.0358 758.057 43.5097C758.057 63.9835 741.46 80.5807 720.986 80.5808C700.512 80.5808 683.915 63.9835 683.915 43.5097C683.915 23.0357 700.512 6.4385 720.986 6.4385L720.986 8.38128C701.585 8.38127 685.858 24.1087 685.858 43.5097Z" fill="#001E59"/>
<path d="M540.905 7.93518L540.905 5.9924L631.055 5.99241L631.055 7.93519L540.905 7.93518ZM505.819 43.0209C505.819 62.3981 521.528 78.1074 540.905 78.1075L567.108 78.1075C568.944 78.1075 570.706 78.8285 572.016 80.1157L583.469 91.3749C584.786 92.6697 586.897 92.6697 588.214 91.3749L599.661 80.1214C600.975 78.8304 602.743 78.1075 604.585 78.1075L631.055 78.1075C650.432 78.1074 666.141 62.3982 666.141 43.0209C666.141 23.6437 650.432 7.93524 631.055 7.93519L631.055 5.99241L632.01 6.00474C651.702 6.50343 667.572 22.3744 668.071 42.0656L668.084 43.0209C668.084 63.4712 651.505 80.0502 631.055 80.0503L604.585 80.0503C603.336 80.0503 602.133 80.5095 601.205 81.3366L601.023 81.5074L589.577 92.7608C587.504 94.7988 584.179 94.7988 582.106 92.7608L570.654 81.5007C569.708 80.5709 568.434 80.0503 567.108 80.0503L540.905 80.0503C520.455 80.0501 503.876 63.4711 503.876 43.0209L503.889 42.0656C504.388 22.3745 520.258 6.50347 539.95 6.00473L540.905 5.9924L540.905 7.93518C521.528 7.93528 505.819 23.6437 505.819 43.0209Z" fill="#001E59"/>
<path d="M270.262 96.5849C290.736 96.5849 307.334 113.182 307.334 133.656C307.334 154.13 290.736 170.728 270.262 170.728C249.788 170.728 233.191 154.13 233.191 133.656C233.191 113.182 249.788 96.5849 270.262 96.5849Z" fill="#001E59"/>
<path d="M415.442 43.3414C415.443 62.7423 431.17 78.4698 450.571 78.4698C469.972 78.4697 485.699 62.7423 485.699 43.3414C485.699 23.9405 469.972 8.21315 450.571 8.21306L450.571 6.27029C471.045 6.27038 487.642 22.8676 487.642 43.3414C487.642 63.8152 471.045 80.4125 450.571 80.4126C430.097 80.4126 413.5 63.8153 413.5 43.3414C413.5 22.8675 430.097 6.27029 450.571 6.27029L450.571 8.21306C431.17 8.21306 415.442 23.9405 415.442 43.3414Z" fill="#001E59"/>
<path d="M595.723 133.82C595.723 153.221 611.451 168.949 630.852 168.949C650.253 168.948 665.98 153.221 665.98 133.82C665.98 114.419 650.253 98.6919 630.852 98.6918L630.852 96.7491C651.326 96.7491 667.923 113.346 667.923 133.82C667.923 154.294 651.326 170.891 630.852 170.891C610.378 170.891 593.781 154.294 593.781 133.82C593.781 113.346 610.378 96.749 630.852 96.7491L630.852 98.6918C611.451 98.6918 595.723 114.419 595.723 133.82Z" fill="#001E59"/>
<path d="M325.31 43.5251L325.31 69.7279C325.31 71.5641 324.588 73.3267 323.301 74.6361L312.042 86.0888C310.747 87.4058 310.747 89.5177 312.042 90.8347L323.295 102.282C324.586 103.595 325.31 105.363 325.31 107.205L325.31 133.675C325.31 153.053 341.018 168.761 360.396 168.761C379.773 168.761 395.481 153.053 395.481 133.675L395.481 43.5251C395.481 24.1479 379.773 8.43948 360.396 8.43942L360.396 6.49664L361.351 6.50897C381.042 7.00767 396.913 22.8786 397.412 42.5698L397.424 43.5251L397.424 133.675C397.424 154.126 380.846 170.704 360.396 170.704C339.945 170.704 323.367 154.126 323.367 133.675L323.367 107.205C323.367 105.873 322.843 104.593 321.909 103.643L310.657 92.1969C308.619 90.124 308.619 86.7995 310.657 84.7265L321.916 73.2739L322.086 73.0927C322.909 72.1685 323.367 70.9715 323.367 69.7279L323.367 43.5251L323.379 42.5698C323.886 22.5611 340.265 6.49664 360.396 6.49664L360.396 8.43942C341.018 8.43942 325.31 24.1479 325.31 43.5251Z" fill="#001E59"/>
<path d="M577.939 134.171C577.939 154.636 561.349 171.227 540.884 171.227L450.666 171.227C430.201 171.227 413.611 154.636 413.611 134.171C413.611 113.707 430.201 97.1164 450.666 97.1164L540.884 97.1164C561.349 97.1164 577.939 113.707 577.939 134.171Z" fill="#001E59"/>
<path d="M235.134 43.5099C235.134 62.9108 250.862 78.6383 270.262 78.6383C289.663 78.6382 305.391 62.9107 305.391 43.5099C305.391 24.109 289.663 8.38161 270.262 8.38152L270.262 6.43875C290.736 6.43883 307.334 23.036 307.334 43.5099C307.334 63.9837 290.736 80.581 270.262 80.5811C249.789 80.581 233.191 63.9837 233.191 43.5099C233.191 23.036 249.789 6.43875 270.262 6.43875L270.262 8.38152C250.862 8.38152 235.134 24.1089 235.134 43.5099Z" fill="#001E59"/>
<path d="M90.18 7.93542L90.18 5.99264L180.33 5.99265L180.33 7.93543L90.18 7.93542ZM55.0943 43.0211C55.0943 62.3984 70.8028 78.1076 90.18 78.1077L116.383 78.1077C118.219 78.1078 119.982 78.8287 121.291 80.116L132.744 91.3752C134.061 92.67 136.173 92.67 137.49 91.3752L148.937 80.1217C150.25 78.8307 152.018 78.1077 153.86 78.1078L180.33 78.1078C199.708 78.1077 215.416 62.3984 215.416 43.0211C215.416 23.644 199.707 7.93548 180.33 7.93543L180.33 5.99265L181.286 6.00499C200.977 6.50368 216.848 22.3747 217.346 42.0659L217.359 43.0211C217.359 63.4714 200.781 80.0505 180.33 80.0505L153.86 80.0505C152.611 80.0505 151.408 80.5098 150.48 81.3369L150.298 81.5076L138.852 92.7611C136.779 94.799 133.454 94.799 131.381 92.7611L119.929 81.501C118.983 80.5711 117.709 80.0506 116.383 80.0505L90.18 80.0505C69.7298 80.0504 53.1516 63.4713 53.1516 43.0211L53.1639 42.0658C53.6627 22.3747 69.5336 6.50372 89.2248 6.00498L90.18 5.99264L90.18 7.93542C70.8029 7.93553 55.0945 23.644 55.0943 43.0211Z" fill="#001E59"/>
<path d="M-35.2797 43.3414C-35.2796 62.7423 -19.5522 78.4698 -0.151344 78.4698C19.2495 78.4697 34.977 62.7423 34.977 43.3414C34.977 23.9405 19.2495 8.21315 -0.151338 8.21306L-0.151338 6.27029C20.3225 6.27038 36.9198 22.8676 36.9198 43.3414C36.9197 63.8152 20.3225 80.4125 -0.151344 80.4126C-20.6252 80.4126 -37.2224 63.8153 -37.2225 43.3414C-37.2225 22.8675 -20.6253 6.27029 -0.151338 6.27029L-0.151338 8.21306C-19.5523 8.21306 -35.2797 23.9405 -35.2797 43.3414Z" fill="#001E59"/>
<path d="M145 133.82C145 153.221 160.727 168.949 180.128 168.949C199.529 168.949 215.256 153.221 215.256 133.82C215.256 114.42 199.529 98.6922 180.128 98.6921L180.128 96.7493C200.602 96.7494 217.199 113.347 217.199 133.82C217.199 154.294 200.602 170.892 180.128 170.892C159.654 170.892 143.057 154.294 143.057 133.82C143.057 113.347 159.654 96.7493 180.128 96.7493L180.128 98.6921C160.727 98.6921 145 114.419 145 133.82Z" fill="#001E59"/>
<path d="M127.214 134.172C127.214 154.637 110.624 171.227 90.159 171.227L-0.0593262 171.227C-20.5243 171.227 -37.1143 154.637 -37.1143 134.172C-37.1143 113.707 -20.5242 97.1166 -0.0592587 97.1166L90.1591 97.1166C110.624 97.1166 127.214 113.707 127.214 134.172Z" fill="#001E59"/>
</g>
</g>
</svg>
