<svg width="131" height="25" viewBox="0 0 131 25" fill="none" xmlns="http://www.w3.org/2000/svg">
<path d="M2.71772 6.61826L0.260303 8.71552C-0.0867676 9.01287 -0.0867676 9.54808 0.260303 9.84543L2.71772 11.9308" fill="#03008F"/>
<path d="M22.1115 15.2326L24.5689 13.1354C24.916 12.838 24.916 12.3028 24.5689 12.0055L22.1115 9.9201" fill="#004CE6"/>
<path d="M15.6451 3.39608C15.3858 3.39608 15.1425 3.44366 14.8911 3.47141C15.3579 4.35947 15.6451 5.35062 15.6451 6.42106V14.1441C15.6451 17.4347 13.1438 20.1187 9.93241 20.4914C11.0095 22.549 13.1518 23.9683 15.6451 23.9683C19.2156 23.9683 22.1118 21.09 22.1118 17.5457V9.82267C22.1118 6.27437 19.2156 3.39608 15.6451 3.39608Z" fill="#004CE6"/>
<path d="M9.18504 17.5472V9.82423C9.18504 6.53363 11.6863 3.84961 14.8977 3.47694C13.8206 1.41932 11.6784 1.90735e-06 9.18504 1.90735e-06C5.61461 1.90735e-06 2.71836 2.87829 2.71836 6.42262V14.1456C2.71836 17.6939 5.61461 20.5682 9.18504 20.5682C9.44036 20.5682 9.6877 20.5207 9.93504 20.4929C9.47227 19.6088 9.18504 18.6177 9.18504 17.5472Z" fill="#03008F"/>
<path d="M126.353 24.0901V3.77579H130.11V24.0901H126.353Z" fill="black"/>
<path d="M119.261 24.0901V3.77579H123.018V24.0901H119.261Z" fill="black"/>
<path d="M107.596 24.452C103.616 24.452 100.444 21.0848 100.444 16.9106C100.444 12.7365 103.616 9.31363 107.596 9.31363C110.1 9.31363 111.408 10.3433 112.187 11.9016V9.61973H115.916V24.0902H112.271V21.7248C111.491 23.3667 110.184 24.452 107.596 24.452ZM104.201 16.8828C104.201 19.0812 105.815 21.057 108.208 21.057C110.684 21.057 112.271 19.1647 112.271 16.9106C112.271 14.6566 110.684 12.7086 108.208 12.7086C105.815 12.7086 104.201 14.6287 104.201 16.8828Z" fill="black"/>
<path d="M92.0171 24.452C86.2289 24.452 81.86 19.9439 81.86 14.3783C81.86 8.7849 86.0063 4.24896 92.0171 4.24896C95.1895 4.24896 97.3879 5.22293 99.141 7.31002L96.3861 9.70321C95.2173 8.47879 93.7703 7.86658 92.0171 7.86658C88.2604 7.86658 85.895 10.8163 85.895 14.3783C85.895 17.9402 88.2604 20.8343 92.1006 20.8343C93.9929 20.8343 95.4121 20.1943 96.5531 18.9421L99.3915 21.3631C97.9166 23.1441 95.4121 24.452 92.0171 24.452Z" fill="black"/>
<path d="M77.5154 24.0901C74.6491 24.0901 73.0907 22.7544 73.0907 19.6098V12.8198H71.0593V9.61964H73.0907V6.69772L76.8475 6.30813V9.61964H79.9086V12.8198H76.8475V19.415C76.8475 20.3334 77.2927 20.7508 78.0163 20.7508H79.5746V24.0901H77.5154Z" fill="black"/>
<path d="M64.0793 24.4519C61.6305 24.4519 59.6547 23.6171 58.0685 21.9196L60.6009 19.6099C61.6583 20.8065 62.7714 21.3909 63.9958 21.3909C65.2759 21.3909 65.9995 20.7508 65.9995 19.8882C65.9995 19.1368 65.6377 18.7194 63.3558 18.1907C59.4877 17.2723 58.9034 15.5192 58.9034 13.6825C58.9034 11.1502 60.907 9.25792 64.302 9.25792C66.6395 9.25792 68.1979 9.8423 69.6727 11.7624L66.9456 13.8495C66.2499 12.7364 65.3594 12.2912 64.3854 12.2912C63.3558 12.2912 62.5766 12.6807 62.5766 13.5712C62.5766 14.0721 62.7993 14.5174 64.5246 14.9626C68.7266 16.0479 69.7006 17.6063 69.7006 19.7768C69.7006 22.4483 67.2795 24.4519 64.0793 24.4519Z" fill="black"/>
<path d="M47.8935 24.424C44.7768 24.424 42.3836 22.1143 42.3836 18.4689V9.61964H46.1403V17.5506C46.1403 20.0551 47.17 21.1404 49.0344 21.1404C50.6206 21.1404 52.0398 20.0551 52.0398 17.5506V9.61964H55.7966V24.0901H52.1512V21.9195C51.4555 23.5892 50.1476 24.424 47.8935 24.424Z" fill="black"/>
<path d="M33.4024 24.3963C31.8719 24.3963 30.397 24.118 29.6178 23.6449L31.0927 20.4447C31.4823 20.723 32.1223 20.89 32.8737 20.89C34.1816 20.89 35.1555 20.3056 35.1555 18.775V4.61068H39.0514V18.9142C39.0514 22.6988 36.6582 24.3963 33.4024 24.3963Z" fill="black"/>
</svg>
